<svg xmlns="http://www.w3.org/2000/svg" width="100" viewBox="102 150 40 40" height="100" style="fill: #5d9d7e"><path d="M140.883 176.621s-1.133 1.301-1.941 5.129c-.781 3.68-2.434 5.992-8.828 6.297l.313-.465c.223-.324.441-.676.688-1.012l.73-1.027c.258-.332.504-.68.766-1s.512-.652.777-.945c.258-.301.508-.59.758-.852.246-.273.496-.504.723-.73a12.36 12.36 0 0 1 .645-.574c.195-.168.379-.301.527-.41.301-.211.492-.301.492-.301l-.031-.074s-.211.07-.535.254c-.168.094-.367.211-.582.359-.223.141-.457.32-.719.508-.25.207-.531.418-.805.66-.285.242-.574.504-.867.781-.305.273-.59.574-.891.875s-.59.621-.887.93c-.297.316-.574.645-.855.961-.23.254-.441.516-.656.77-.078-.41-.18-.875-.312-1.387.164-1.02.5-2.215 1.18-3.395a8.91 8.91 0 0 1 .668-1c1.043-1.363 2.629-2.621 5.023-3.445a14.87 14.87 0 0 1 1.273-.379 20.2 20.2 0 0 1 3.348-.527"/><path d="M128.82 187.184l-.434-.355-.156-.125-1.844-1.48-1.937-1.48-1.984-1.414-.234-.16-1.734-1.148-1.895-1.145-1.742-.937-1.102-.516-.418-.18c-.457-.199-.871-.34-1.211-.457-.676-.227-1.09-.277-1.09-.277l-.031.148s.383.094 1.023.383l1.129.574 1.406.832 1.605 1.105 1.723 1.313 1.785 1.48 1.781 1.59 1.734 1.652 1.641 1.641.754.754c-1.984.285-3.75.422-5.324.422-7.957 0-11.062-3.496-13.379-8.984-2.879-6.84-5.465-8.855-5.465-8.855 1.621-.184 3.141-.27 4.566-.27 1.375 0 2.664.078 3.867.23a24.07 24.07 0 0 1 .766.105c2.965.453 5.395 1.336 7.391 2.473 4.02 2.289 6.262 5.605 7.516 8.504a20.58 20.58 0 0 1 .977 2.809 22.5 22.5 0 0 1 .32 1.359c-.004.148-.008.285-.004.41"/><path d="M123.602 168.797c-.352-.102.086-.441-.582-.309s-.559.297-.785-.031 0-.437-.434-.449-.27.02-.66-.176-.559-.285-.844-.187-.078-.031-.461.145-.184.602 0 .348c0 0 .504-.109.734 0s0-.098.23.109.285.309.547.363.043.129.328.109.395-.344.426.004-.297.281.152.477.164.371.438.273-.176-.492.395-.25.469.043.516-.078.348-.25 0-.348m.343.156c-.215-.004-.215.125-.215.125-.023.066.043.184.164.199s.121-.027.121-.027c.18-.133.051-.008.191 0s.098-.176 0-.297-.051.004-.262 0"/><path d="M139.109 164.012c-.203.352-.453.25-.629.309s-.508-.309-.277-.395.797-.301.906-.613c.008-.027.023-.055.039-.078l.207.613c-.105.027-.195.078-.246.164zm.453-1.672c-.738-1.742-1.793-3.309-3.137-4.652s-2.91-2.398-4.652-3.137a14.58 14.58 0 0 0-5.699-1.148c-1.973 0-3.891.387-5.695 1.148-1.742.738-3.309 1.793-4.652 3.137s-2.398 2.91-3.137 4.652a14.58 14.58 0 0 0-1.148 5.699 14.6 14.6 0 0 0 .227 2.586l.742.094a13.76 13.76 0 0 1-.258-2.68c0-1.141.137-2.25.398-3.312.012.008.023.012.031.02.273.164-.031.48.242.973s.188.32.301.965.313.645.555.887.414.711.281-.109-.469-.809-.73-1.414.02-.609.285-.609.25.82.883 1.758.297.594.273 1.027.539.484.965 1.02.898.207 1.289.145.352.117.789.699.305.176.754.316.449.637.777.887.297.492.887.535.262-.371.547-.328.109.242.305.637-.219.566-.547 1.18l-.012.023a18.19 18.19 0 0 1 4.668 3.785c1.547 1.758 2.605 3.645 3.328 5.371l1.004-.199.449-.855c-.531.152-1.078.273-1.633.359.199-.687-.199-1.418.359-1.68.656-.305.852-.699 1.18-.809s.09-.414.352-1.926 1.027-1.094.875-1.75-.484-.262-.68-.746-.504-.281-1.289-.457-.789-.547-1.512-.656.066-.613-.238-.809-.242-.766-.812-.832-1.027-.309-1.508-.613-.504-.855-1.379-.57-.57-.176-1.246-.523-1.008 1.16-1.27.984-.48-.309-.898-.066-.328-.242-.633-.59.152-.965-.109-1.203-.418.066-.656-.527.281-.676.262-.984-.309-.305-.832.199-.352.676-1.246.438 0-.418-.242-1.207-.219-1.004.766-1.441 1.051.195 1.379-.242.547-.02 1.184-.195.324.676.609 1.422.266.02.242-.527-.023-.766.41-1.422.859-.5 1.035-1.18.305-.262.719-.965.57-.281 1.031-.414-.309-.395.414-.875.59-.086.453.262.379.504.684 0 .746-.262.832-.555-.371-.168-.629-.562.281-.219.957-.633.594.109.395.262-.242.504.461.809.566 0 .656-.5-.766-.484-.285-.941.133-.328-.656-1.008.086-1.051-.285-1.027-.48.457-.875.086-.898-.723-1.254-.723-.848 1.051-.539 1.488-.109.152-.68.285-.395.637-.523 1.379-.328-.086-.375-.789.047-.547-.348-.613-.328-.281-.918-.766-.09-.238.371-.855.613-.348 1.488-.434.547.57 1.051.176-.898-.547 0-.984.48-.57 1.359-.594.301.156 0 .57-.531.152-.551.414.48 0 .551.156-.004.109-.156.305 1.102.488 1.691.359.152-.359.371-.652.598-.187.816-.422-.379-.125-.664-.516-.187-.492-.605-.703-.035.051-.516-.539c-.07-.082-.113-.164-.133-.238a13.79 13.79 0 0 1 3.352.551.46.46 0 0 1 .082.215c.047.5.57.129.461.457s-.875.371-.656 1.027.68.547.809 1.051.195.984.328.637 0-.832.57-1.117.57-.742.941-.633c.309.09.332.461 1.09.031 2.129 1.379 3.855 3.324 4.977 5.617-.043 0-.09 0-.137-.004-.875-.09-1.16-.316-1.16.004s.547-.027.109.563-.437.223-.109.789.59.176.59.699-.043.504-.414.832-.449.199-.41.68.453.242-.27.59-.918 1.27-1.203 1.688.176-.066 0 .656-.613 1.484-.242 1.969.504.02.637.723.656.918 1.113 1.379.352.348.898.172.074-.105.699-.02c.184.023.355.012.508-.023-.465 1.324-1.129 2.559-1.953 3.668l1.043-.234a14.6 14.6 0 0 0 1.258-2.352 14.58 14.58 0 0 0 1.148-5.699 14.58 14.58 0 0 0-1.148-5.699"/></svg>